<svg xmlns:xlink="http://www.w3.org/1999/xlink" xmlns="http://www.w3.org/2000/svg" width="122.777" height="165" class="position-absolute top-0 start-50 translate-middle" viewBox="0 0 122.777 165" speechify-initial-font-family="Figtree, sans-serif" speechify-initial-font-size="15px">
  <g id="Groupe_806" data-name="Groupe 806" transform="translate(19059.389 1265.93)" speechify-initial-font-family="Figtree, sans-serif" speechify-initial-font-size="15px">
    <path id="Tracé_2" data-name="Tracé 2" d="M872,2404c-33.9,0-61.388-36.937-61.388-82.5S838.1,2239,872,2239s61.388,36.937,61.388,82.5S905.9,2404,872,2404" transform="translate(-19870 -3504.93)" fill="#FFFFFF" speechify-initial-font-family="Figtree, sans-serif" speechify-initial-font-size="15px"></path>
    <ellipse id="Ellipse_2" data-name="Ellipse 2" cx="52.943" cy="71.151" rx="52.943" ry="71.151" transform="translate(-19050.943 -1254.581)" fill="none" stroke="#515151" stroke-miterlimit="10" stroke-width="0.5px" speechify-initial-font-family="Figtree, sans-serif" speechify-initial-font-size="15px"></ellipse>
    <path id="Tracé_3" data-name="Tracé 3" d="M878.093,2323.975l-.045-.013.013-.013c-.007,0-.169-.091-.169-.091a.713.713,0,0,1,.792-1.169,10.068,10.068,0,0,0,3.891.727c2.651.085,6.633-.422,11.888-2.878a16.083,16.083,0,0,1,16.968,2.138l.045.013-.013.006c.007.007.169.1.169.1a.707.707,0,0,1,.241.488v.071a.733.733,0,0,1-.351.591.706.706,0,0,1-.682.02,9.879,9.879,0,0,0-3.892-.728c-2.643-.084-6.632.423-11.887,2.878a16.081,16.081,0,0,1-16.968-2.137" transform="translate(-19870 -3504.93)" speechify-initial-font-family="Figtree, sans-serif" speechify-initial-font-size="15px"></path>
    <path id="Tracé_4" data-name="Tracé 4" d="M872.071,2372.267H872a.72.72,0,0,1-.592-.351.709.709,0,0,1-.019-.683,9.847,9.847,0,0,0,.727-3.89c.085-2.644-.422-6.633-2.876-11.888a16.075,16.075,0,0,1,2.136-16.967l.013-.047.013.014c0-.006.091-.169.091-.169a.714.714,0,0,1,1.169.793,9.917,9.917,0,0,0-.727,3.9c-.085,2.645.422,6.626,2.871,11.881a16.073,16.073,0,0,1-2.131,16.969l-.013.045-.013-.014c0,.007-.091.169-.091.169a.709.709,0,0,1-.487.241" transform="translate(-19870 -3504.93)" speechify-initial-font-family="Figtree, sans-serif" speechify-initial-font-size="15px"></path>
    <path id="Tracé_5" data-name="Tracé 5" d="M872.071,2308.6H872a.721.721,0,0,1-.592-.35.708.708,0,0,1-.019-.683,9.854,9.854,0,0,0,.727-3.89c.085-2.645-.422-6.633-2.876-11.888a16.077,16.077,0,0,1,2.136-16.968l.013-.046.013.012s.091-.168.091-.168a.713.713,0,0,1,1.169.793,9.918,9.918,0,0,0-.727,3.9c-.085,2.644.422,6.626,2.871,11.882a16.071,16.071,0,0,1-2.131,16.968l-.013.045-.013-.013c0,.006-.091.169-.091.169a.7.7,0,0,1-.487.24" transform="translate(-19870 -3504.93)" speechify-initial-font-family="Figtree, sans-serif" speechify-initial-font-size="15px"></path>
    <path id="Tracé_6" data-name="Tracé 6" d="M831.971,2323.975l-.045-.013.013-.013c-.007,0-.169-.091-.169-.091a.713.713,0,0,1,.792-1.169,10.068,10.068,0,0,0,3.891.727c2.651.085,6.633-.422,11.888-2.878a16.083,16.083,0,0,1,16.968,2.138l.045.013-.013.006c.007.007.169.1.169.1a.707.707,0,0,1,.241.488v.071a.733.733,0,0,1-.351.591.706.706,0,0,1-.682.02,9.876,9.876,0,0,0-3.891-.728c-2.644-.084-6.633.423-11.888,2.878a16.081,16.081,0,0,1-16.968-2.137" transform="translate(-19870 -3504.93)" speechify-initial-font-family="Figtree, sans-serif" speechify-initial-font-size="15px"></path>
  </g>
</svg>