<svg xmlns:xlink="http://www.w3.org/1999/xlink" xmlns="http://www.w3.org/2000/svg" width="135.195" height="50.119" viewBox="0 0 135.195 50.119" speechify-initial-font-family="Figtree, sans-serif" speechify-initial-font-size="15px">
  <g id="Groupe_789" data-name="Groupe 789" transform="translate(-788.498 -30.881)" speechify-initial-font-family="Figtree, sans-serif" speechify-initial-font-size="15px">
    <path id="Tracé_17" data-name="Tracé 17" d="M863.294,52.828V72.021c0,4.46,3.24,7.277,8.275,7.277,5.059,0,8.3-2.817,8.3-7.277V52.828c0-2.343.623-3.613,2.293-4.61h-8.3c1.67,1,2.293,2.267,2.293,4.61V72.021a3.74,3.74,0,0,1-7.478,0V52.828c0-2.343.648-3.613,2.294-4.61H861c1.645,1,2.293,2.267,2.293,4.61" transform="translate(-13)" fill="#1B1C1C" speechify-initial-font-family="Figtree, sans-serif" speechify-initial-font-size="15px"></path>
    <path id="Tracé_18" data-name="Tracé 18" d="M902.873,67.683c-1.3,4.76-3.839,7.976-8.051,7.976h-2.068l10.169-27.965c-.324.374-1.022.524-2.243.524H889.863c-1.221,0-1.645-.15-1.969-.524v7.677a7.885,7.885,0,0,1,6.829-4.113h1.894L886,78.749h16.874Z" transform="translate(-13)" fill="#1B1C1C" speechify-initial-font-family="Figtree, sans-serif" speechify-initial-font-size="15px"></path>
    <path id="Tracé_19" data-name="Tracé 19" d="M855.07,69.652c-1.5,4.113-4.312,6.006-8.051,6.006h-1.1V61.775h2.143c2.393,0,3.914,1.2,4.387,2.942V56.193c-.473,1.745-1.994,2.941-4.387,2.941h-2.143V51.259h2.044a7.883,7.883,0,0,1,6.828,4.112V47.693c-.348.375-.747.524-1.968.524H838.221c1.67,1,2.293,2.268,2.293,4.611v6.306h-4.735s.872,1.521,4.735,2.268V74.114c0,2.367-.623,3.639-2.293,4.636H855.07Z" transform="translate(-13)" fill="#1B1C1C" speechify-initial-font-family="Figtree, sans-serif" speechify-initial-font-size="15px"></path>
    <path id="Tracé_20" data-name="Tracé 20" d="M830.869,60.331c0-9.048-4.287-16.8-14.431-16.8-5.957,0-9.346,3.614-9.745,7.278a10.576,10.576,0,0,1,5.907-4.288V74.113c0,2.368-.623,3.639-2.293,4.636h5.633c10.392,0,14.929-8.225,14.929-18.418M818.008,46.5c4.237,1.147,6.9,5.508,6.9,14.381,0,7.7-2.144,14.78-6.9,14.78Z" transform="translate(-13)" fill="#1B1C1C" speechify-initial-font-family="Figtree, sans-serif" speechify-initial-font-size="15px"></path>
    <path id="Tracé_21" data-name="Tracé 21" d="M923.606,78.749h10.368c-1.894-1-2.766-2.268-3.365-4.636L923.7,47.365a8.069,8.069,0,0,1,5.56,4.018v-7.7c-.325.424-.724.547-1.945.547H913.387c-1.221,0-1.62-.149-1.969-.547v7.7a7.983,7.983,0,0,1,6.125-4.082l-6.922,26.812c-.6,2.368-1.471,3.639-3.365,4.636h8.4a3.128,3.128,0,0,1-1.47-2.791,7.685,7.685,0,0,1,.249-1.845l1.539-6.479h7.29l1.539,6.479a8.085,8.085,0,0,1,.25,1.869,3.067,3.067,0,0,1-1.446,2.767m-6.9-14.206,2.911-12.26,2.911,12.26Z" transform="translate(-13)" fill="#1B1C1C" speechify-initial-font-family="Figtree, sans-serif" speechify-initial-font-size="15px"></path>
    <path id="Tracé_22" data-name="Tracé 22" d="M826.68,43.8C831.2,45.784,830.76,49,832.332,49c1.211,0,.6-3.337-5.652-5.195" transform="translate(-13)" fill="#1B1C1C" speechify-initial-font-family="Figtree, sans-serif" speechify-initial-font-size="15px"></path>
    <path id="Tracé_23" data-name="Tracé 23" d="M881.84,54.8c0-2.343.27-3.613,1.939-4.611h-1.858a5.141,5.141,0,0,0-1.067,3.625v17.97c0,9.788-10.943,9.388-14.115,7.133,3.2,3.369,15.1,3.62,15.1-6.682Z" transform="translate(-13)" fill="#1B1C1C" speechify-initial-font-family="Figtree, sans-serif" speechify-initial-font-size="15px"></path>
    <path id="Tracé_24" data-name="Tracé 24" d="M854.424,66.688V58.165a3.783,3.783,0,0,1-.986,1.717v5.089a3.778,3.778,0,0,1,.986,1.717" transform="translate(-13)" fill="#1B1C1C" speechify-initial-font-family="Figtree, sans-serif" speechify-initial-font-size="15px"></path>
    <path id="Tracé_25" data-name="Tracé 25" d="M855.781,50.136v5.856a11.271,11.271,0,0,1,.986,1.35V49.665a1.483,1.483,0,0,1-.986.471" transform="translate(-13)" fill="#1B1C1C" speechify-initial-font-family="Figtree, sans-serif" speechify-initial-font-size="15px"></path>
    <path id="Tracé_26" data-name="Tracé 26" d="M856.055,79.735H841.417a5.016,5.016,0,0,1-1.225.986h16.849v-9.1a12.027,12.027,0,0,1-.986,2.1Z" transform="translate(-13)" fill="#1B1C1C" speechify-initial-font-family="Figtree, sans-serif" speechify-initial-font-size="15px"></path>
    <path id="Tracé_27" data-name="Tracé 27" d="M839.467,62.137a6.606,6.606,0,0,1-3.326-1.566A5.192,5.192,0,0,0,839.467,63Z" transform="translate(-13)" fill="#1B1C1C" speechify-initial-font-family="Figtree, sans-serif" speechify-initial-font-size="15px"></path>
    <path id="Tracé_28" data-name="Tracé 28" d="M903.8,79.735H888.07l-.381.986h17.1V69.654a18.335,18.335,0,0,1-.986,2.78Z" transform="translate(-13)" fill="#1B1C1C" speechify-initial-font-family="Figtree, sans-serif" speechify-initial-font-size="15px"></path>
    <path id="Tracé_29" data-name="Tracé 29" d="M872.589,50.188h-1.846a5.147,5.147,0,0,0-1.079,3.626V71.982a2.243,2.243,0,0,0,1.324,2.168,2.68,2.68,0,0,1-.339-1.471V54.8c0-2.343.295-3.613,1.94-4.612" transform="translate(-13)" fill="#1B1C1C" speechify-initial-font-family="Figtree, sans-serif" speechify-initial-font-size="15px"></path>
    <path id="Tracé_30" data-name="Tracé 30" d="M895.1,52.279h-.281a6.519,6.519,0,0,0-5.24,2.934v2.039c1.306-2.022,3.328-3.911,5.111-3.911Z" transform="translate(-13)" fill="#1B1C1C" speechify-initial-font-family="Figtree, sans-serif" speechify-initial-font-size="15px"></path>
    <path id="Tracé_31" data-name="Tracé 31" d="M894.153,74.684h1.079l9.041-24.837a2.6,2.6,0,0,1-1.188.32Z" transform="translate(-13)" fill="#1B1C1C" speechify-initial-font-family="Figtree, sans-serif" speechify-initial-font-size="15px"></path>
    <path id="Tracé_32" data-name="Tracé 32" d="M846.908,58.216h.986V53.229h1.187a7.374,7.374,0,0,1,3.334.624,4.7,4.7,0,0,0-3.655-1.609h-1.852Z" transform="translate(-13)" fill="#1B1C1C" speechify-initial-font-family="Figtree, sans-serif" speechify-initial-font-size="15px"></path>
    <path id="Tracé_33" data-name="Tracé 33" d="M846.908,62.762V74.728h.986v-11h1.578a3.934,3.934,0,0,1,1.815.41,2.611,2.611,0,0,0-2.554-1.375Z" transform="translate(-13)" fill="#1B1C1C" speechify-initial-font-family="Figtree, sans-serif" speechify-initial-font-size="15px"></path>
    <path id="Tracé_34" data-name="Tracé 34" d="M811.681,48.029a5.261,5.261,0,0,0-3.441,4.752v0a5.411,5.411,0,0,1,3.44-3.629Z" transform="translate(-13)" fill="#1B1C1C" speechify-initial-font-family="Figtree, sans-serif" speechify-initial-font-size="15px"></path>
    <path id="Tracé_35" data-name="Tracé 35" d="M818.994,74.617a3.871,3.871,0,0,0,.986-.4V48.492a2.774,2.774,0,0,0-.986-.5Z" transform="translate(-13)" fill="#1B1C1C" speechify-initial-font-family="Figtree, sans-serif" speechify-initial-font-size="15px"></path>
    <path id="Tracé_36" data-name="Tracé 36" d="M831.854,61.316c0,12.5-7.016,18.418-14.929,18.418H813.5a5.08,5.08,0,0,1-1.225.987h4.059c11.03,0,16.5-7.878,16.5-18.419,0-4.816-.692-9.549-3.528-12.371,1.48,2.335,2.542,4.867,2.542,11.385" transform="translate(-13)" fill="#1B1C1C" speechify-initial-font-family="Figtree, sans-serif" speechify-initial-font-size="15px"></path>
    <path id="Tracé_37" data-name="Tracé 37" d="M807.026,43.226l.2-.142.112-.079.705-.456c.282-.154.568-.3.844-.441a6.758,6.758,0,0,1,.839-.373c.281-.1.544-.237.82-.312.5-.145.972-.3,1.426-.387a2.081,2.081,0,0,1-.085-.287,2.9,2.9,0,0,1-.062-.465c0-.07-.011-.138-.011-.212,0-.033,0-.066.006-.1a14.748,14.748,0,0,0-1.612.531c-.289.1-.565.255-.858.385a6.976,6.976,0,0,0-.87.45c-.286.171-.581.338-.869.519l-.719.526-.122.081-.216.147-.2.168-.4.338-.407.34c-.129.121-.25.251-.375.377-.238.262-.5.5-.717.781l-.644.833c-.208.281-.372.586-.552.876l-.26.437c-.072.153-.143.3-.213.453-.136.3-.285.592-.4.888-.1.3-.2.6-.292.883-.047.144-.094.285-.139.424s-.065.283-.094.423c-.057.277-.111.545-.164.8a4.947,4.947,0,0,0-.1.745c-.021.236-.041.462-.059.674a6.965,6.965,0,0,0-.02,1.093c.016.607.034.95.034.95s.045-.342.124-.94a8.824,8.824,0,0,1,.165-1.066q.064-.3.135-.648a5.583,5.583,0,0,1,.17-.709c.074-.243.151-.5.231-.758.041-.129.075-.264.12-.4s.107-.262.161-.4l.335-.824.423-.824.218-.421.264-.4c.184-.265.344-.55.541-.812l.618-.776c.2-.263.459-.482.685-.726.116-.121.228-.245.347-.361l.379-.324.377-.324Z" transform="translate(-13)" fill="#1B1C1C" speechify-initial-font-family="Figtree, sans-serif" speechify-initial-font-size="15px"></path>
    <path id="Tracé_38" data-name="Tracé 38" d="M822.37,39.449c-.267-.037-.531-.061-.792-.08s-.52-.048-.772-.057c-.7-.043-1.358-.065-1.965-.082a3.679,3.679,0,0,1,.094.643c0,.066.01.133.01.2,0,.018,0,.033,0,.052,0,.047-.005.091-.007.137,0,.013,0,.027,0,.041-.006.091-.016.177-.03.262l.183.02c.237.023.486.052.741.092s.52.064.779.126.528.092.786.177.515.152.762.253.489.205.729.285.476.165.706.219.447.113.652.16a6.793,6.793,0,0,0,1.418.211l.04-.091a6.857,6.857,0,0,0-1.16-.86c-.128-.078-.27-.152-.418-.226a14.287,14.287,0,0,1,1.393.39c.25.077.492.164.729.258s.477.166.7.268.453.185.677.265.432.189.645.271c.423.168.808.365,1.176.527s.691.341.991.479.553.274.767.38c.427.213.685.323.685.323l.059-.08s-.188-.2-.54-.536a8.188,8.188,0,0,0-.656-.578c-.13-.107-.275-.214-.424-.332a4.812,4.812,0,0,0-.486-.348,11.281,11.281,0,0,0-1.152-.7,10.058,10.058,0,0,0-1.282-.6c-.131-.063-.264-.125-.4-.19l-.348-.168c-.121-.046-.242-.094-.364-.143-.246-.09-.488-.206-.747-.277s-.515-.162-.777-.238l-.8-.191c-.534-.1-1.074-.2-1.607-.255" transform="translate(-13)" fill="#1B1C1C" speechify-initial-font-family="Figtree, sans-serif" speechify-initial-font-size="15px"></path>
    <path id="Tracé_39" data-name="Tracé 39" d="M812.113,38.552h.049c.021-.045.041-.09.064-.134.005-.008.008-.018.013-.027.019-.036.041-.069.061-.1a.38.38,0,0,0-.115-.042,5.4,5.4,0,0,1-3.3-1.84c-.36-.38-.644-.679-1.031-.679a.861.861,0,0,0-.285.05.586.586,0,0,0-.377.69c.112.692,1.284,2.018,4.922,2.087" transform="translate(-13)" fill="#1B1C1C" speechify-initial-font-family="Figtree, sans-serif" speechify-initial-font-size="15px"></path>
    <path id="Tracé_40" data-name="Tracé 40" d="M819.11,37.994c-.042.005-.063.008-.14.012a.124.124,0,0,0-.045.011.151.151,0,0,0-.1.168c.028.125.178.134.389.134h.079a6.5,6.5,0,0,0,5.147-2.416.119.119,0,0,0,0-.14.12.12,0,0,0-.133-.044,10.17,10.17,0,0,0-2.3,1.111,7.037,7.037,0,0,1-2.814,1.155Z" transform="translate(-13)" fill="#1B1C1C" speechify-initial-font-family="Figtree, sans-serif" speechify-initial-font-size="15px"></path>
    <path id="Tracé_41" data-name="Tracé 41" d="M815.381,36.371c.383,0,.871-2.5.871-2.833a4.353,4.353,0,0,0-.889-2.657c-.24,0-.9,1.507-.9,2.657,0,.331.526,2.833.914,2.833" transform="translate(-13)" fill="#1B1C1C" speechify-initial-font-family="Figtree, sans-serif" speechify-initial-font-size="15px"></path>
    <path id="Tracé_42" data-name="Tracé 42" d="M817.187,37c.058.035.117.068.173.105,2.965-.322,3-3.449,3-3.482a.122.122,0,0,0-.121-.122,1.8,1.8,0,0,0-1.828,1.829,1.518,1.518,0,0,1-1.441,1.554c.066.034.132.068.2.106l.018.01" transform="translate(-13)" fill="#1B1C1C" speechify-initial-font-family="Figtree, sans-serif" speechify-initial-font-size="15px"></path>
    <path id="Tracé_43" data-name="Tracé 43" d="M813.4,37.108c.056-.038.115-.071.173-.1l.017-.012c.065-.038.13-.071.2-.106a1.521,1.521,0,0,1-1.442-1.554,1.8,1.8,0,0,0-1.829-1.828.125.125,0,0,0-.085.035.122.122,0,0,0-.036.086c0,.033.038,3.16,3.005,3.482" transform="translate(-13)" fill="#1B1C1C" speechify-initial-font-family="Figtree, sans-serif" speechify-initial-font-size="15px"></path>
    <path id="Tracé_44" data-name="Tracé 44" d="M815.6,39.139a.857.857,0,0,0-.177-.019.9.9,0,0,0-.718.363.891.891,0,0,0-.184.54v.016a.96.96,0,0,0,.014.143.905.905,0,0,0,.318.537.891.891,0,0,0,.569.208.906.906,0,0,0,.826-.539.966.966,0,0,0,.063-.221.837.837,0,0,0,.014-.144.439.439,0,0,0-.005-.049.9.9,0,0,0-.721-.835" transform="translate(-13)" fill="#1B1C1C" speechify-initial-font-family="Figtree, sans-serif" speechify-initial-font-size="15px"></path>
    <path id="Tracé_45" data-name="Tracé 45" d="M931.575,46.194h-1.162v5.227a8.568,8.568,0,0,1,1.162,1.933Z" transform="translate(-13)" fill="#1B1C1C" speechify-initial-font-family="Figtree, sans-serif" speechify-initial-font-size="15px"></path>
    <path id="Tracé_46" data-name="Tracé 46" d="M916.356,79.735h-5.971a6.789,6.789,0,0,1-1.441.986h8.4a3.6,3.6,0,0,1-.988-.986" transform="translate(-13)" fill="#1B1C1C" speechify-initial-font-family="Figtree, sans-serif" speechify-initial-font-size="15px"></path>
    <path id="Tracé_47" data-name="Tracé 47" d="M919.12,63.484l1.127-4.8-.61-2.568L917.9,63.484Z" transform="translate(-13)" fill="#1B1C1C" speechify-initial-font-family="Figtree, sans-serif" speechify-initial-font-size="15px"></path>
    <path id="Tracé_48" data-name="Tracé 48" d="M916.675,68.619,915.2,74.813a3.034,3.034,0,0,0,.753,3.209c-.011-.123-.016-.249-.016-.379a7.732,7.732,0,0,1,.249-1.845l1.471-6.194h5.053l-.234-.985Z" transform="translate(-13)" fill="#1B1C1C" speechify-initial-font-family="Figtree, sans-serif" speechify-initial-font-size="15px"></path>
    <path id="Tracé_49" data-name="Tracé 49" d="M935.254,79.734h-8.975a3.5,3.5,0,0,1-.985.987h11.4a6.771,6.771,0,0,1-1.44-.987" transform="translate(-13)" fill="#1B1C1C" speechify-initial-font-family="Figtree, sans-serif" speechify-initial-font-size="15px"></path>
    <path id="Tracé_50" data-name="Tracé 50" d="M925.077,48.826l6.693,25.848a4.408,4.408,0,0,0,2.319,3.171,9.593,9.593,0,0,1-.8-2.186l-6.767-26.15a3.5,3.5,0,0,0-1.448-.683" transform="translate(-13)" fill="#1B1C1C" speechify-initial-font-family="Figtree, sans-serif" speechify-initial-font-size="15px"></path>
    <path id="Tracé_51" data-name="Tracé 51" d="M916.127,48.848a7.169,7.169,0,0,0-3.594,2.695v1.97a9.951,9.951,0,0,1,3.185-3.081Z" transform="translate(-13)" fill="#1B1C1C" speechify-initial-font-family="Figtree, sans-serif" speechify-initial-font-size="15px"></path>
  </g>
</svg>