<svg xmlns:xlink="http://www.w3.org/1999/xlink" xmlns="http://www.w3.org/2000/svg" width="31.988" height="31.987" viewBox="0 0 31.988 31.987" speechify-initial-font-family="Figtree, sans-serif" speechify-initial-font-size="15px">
  <g id="Groupe_799" data-name="Groupe 799" transform="translate(16848.793 3970.55)" speechify-initial-font-family="Figtree, sans-serif" speechify-initial-font-size="15px">
    <path id="Tracé_1216" data-name="Tracé 1216" d="M1577.067,54.685a15.993,15.993,0,1,0,4.685,11.309,15.889,15.889,0,0,0-4.685-11.309m-19.285,22.954a8.1,8.1,0,0,1,15.952,0,14.094,14.094,0,0,1-15.952,0m2.89-13.653a5.086,5.086,0,1,1,5.086,5.086,5.091,5.091,0,0,1-5.086-5.086m14.685,12.353a9.986,9.986,0,0,0-5.807-6.52,6.96,6.96,0,1,0-7.584,0,9.981,9.981,0,0,0-5.807,6.519,14.119,14.119,0,1,1,19.2,0" transform="translate(-18398.557 -4020.55)" speechify-initial-font-family="Figtree, sans-serif" speechify-initial-font-size="15px"></path>
  </g>
</svg>