<svg xmlns:xlink="http://www.w3.org/1999/xlink" xmlns="http://www.w3.org/2000/svg" width="141.561" height="149.089" class="img-fluid" viewBox="0 0 141.561 107.958" speechify-initial-font-family="Figtree, sans-serif" speechify-initial-font-size="15px" style="font-family: Figtree, sans-serif; font-size: 15px;">
  <g id="Groupe_807" data-name="Groupe 807" transform="translate(20139.18 -5629.87)" speechify-initial-font-family="Figtree, sans-serif" speechify-initial-font-size="15px" style="font-family: Figtree, sans-serif; font-size: 15px;">
    <path id="Tracé_1229" data-name="Tracé 1229" d="M732.1,9457.606c0,18.838-11.248,34.11-25.117,34.11-7.983,0-15.09-5.05-19.686-12.931a44.016,44.016,0,0,0,0-42.36c4.6-7.881,11.7-12.931,19.686-12.931,13.869,0,25.117,15.272,25.117,34.111" transform="translate(-20743 -3773.757)" fill="#D9D8D6" speechify-initial-font-family="Figtree, sans-serif" speechify-initial-font-size="15px" style="font-family: Figtree, sans-serif; font-size: 15px;"></path>
    <path id="Tracé_1230" data-name="Tracé 1230" d="M616.889,9457.606c0,18.838,11.248,34.11,25.117,34.11,7.983,0,15.09-5.05,19.686-12.931a44.015,44.015,0,0,1,0-42.36c-4.6-7.881-11.7-12.931-19.686-12.931-13.869,0-25.117,15.272-25.117,34.111" transform="translate(-20743 -3773.757)" fill="#D9D8D6" speechify-initial-font-family="Figtree, sans-serif" speechify-initial-font-size="15px" style="font-family: Figtree, sans-serif; font-size: 15px;"></path>
    <path id="Tracé_1231" data-name="Tracé 1231" d="M666.066,9457.606a66.23,66.23,0,0,0,8.534,33.281c-7.233,12.386-18.4,20.322-30.936,20.322-21.8,0-39.469-24-39.469-53.6s17.665-53.6,39.469-53.6c12.535,0,23.7,7.938,30.936,20.322A66.232,66.232,0,0,0,666.066,9457.606Z" transform="translate(-20743 -3773.757)" fill="none" stroke="#000000" stroke-miterlimit="10" stroke-width="0.75px" speechify-initial-font-family="Figtree, sans-serif" speechify-initial-font-size="15px" style="font-family: Figtree, sans-serif; font-size: 15px;"></path>
    <line id="Ligne_345" data-name="Ligne 345" y2="107.207" transform="translate(-20099.34 5630.243)" fill="none" stroke="#000000" stroke-miterlimit="10" stroke-width="0.75px" speechify-initial-font-family="Figtree, sans-serif" speechify-initial-font-size="15px" style="font-family: Figtree, sans-serif; font-size: 15px;"></line>
    <path id="Tracé_1232" data-name="Tracé 1232" d="M683.134,9457.606a66.24,66.24,0,0,1-8.534,33.281,69.165,69.165,0,0,1,0-66.563,66.242,66.242,0,0,1,8.534,33.282" transform="translate(-20743 -3773.757)" speechify-initial-font-family="Figtree, sans-serif" speechify-initial-font-size="15px" style="font-family: Figtree, sans-serif; font-size: 15px;"></path>
    <path id="Tracé_1233" data-name="Tracé 1233" d="M745.005,9457.606c0,29.6-17.676,53.6-39.469,53.6-12.546,0-23.714-7.937-30.936-20.322a69.165,69.165,0,0,0,0-66.563c7.222-12.385,18.39-20.322,30.936-20.322C727.329,9404,745.005,9428,745.005,9457.606Z" transform="translate(-20743 -3773.757)" fill="none" stroke="#000000" stroke-miterlimit="10" stroke-width="0.75px" speechify-initial-font-family="Figtree, sans-serif" speechify-initial-font-size="15px" style="font-family: Figtree, sans-serif; font-size: 15px;"></path>
    <line id="Ligne_346" data-name="Ligne 346" y2="107.207" transform="translate(-20037.469 5630.243)" fill="none" stroke="#000000" stroke-miterlimit="10" stroke-width="0.75px" speechify-initial-font-family="Figtree, sans-serif" speechify-initial-font-size="15px" style="font-family: Figtree, sans-serif; font-size: 15px;"></line>
  </g>
</svg>