<svg xmlns:xlink="http://www.w3.org/1999/xlink" xmlns="http://www.w3.org/2000/svg" width="177.205" height="149.089" class="img-fluid" viewBox="0 0 177.205 119.927" speechify-initial-font-family="Figtree, sans-serif" speechify-initial-font-size="15px" style="font-family: Figtree, sans-serif; font-size: 15px;">
  <g id="Groupe_809" data-name="Groupe 809" transform="translate(19442 -5627.243)" speechify-initial-font-family="Figtree, sans-serif" speechify-initial-font-size="15px" style="font-family: Figtree, sans-serif; font-size: 15px;">
    <path id="Tracé_1199" data-name="Tracé 1199" d="M101.969,60.223a42,42,0,1,1-42-42,42,42,0,0,1,42,42" transform="translate(-19442 5627.243)" fill="#D9D8D6" speechify-initial-font-family="Figtree, sans-serif" speechify-initial-font-size="15px" style="font-family: Figtree, sans-serif; font-size: 15px;"></path>
    <path id="Tracé_1200" data-name="Tracé 1200" d="M159.969,60.223a42,42,0,1,1-42-42,42,42,0,0,1,42,42" transform="translate(-19442 5627.243)" fill="#D9D8D6" speechify-initial-font-family="Figtree, sans-serif" speechify-initial-font-size="15px" style="font-family: Figtree, sans-serif; font-size: 15px;"></path>
    <path id="Tracé_1201" data-name="Tracé 1201" d="M68.3,118.847a59.467,59.467,0,1,1,51.127-58.884c0,22.744-12.064,41.912-30.824,51.914" transform="translate(-19442 5627.243)" fill="none" stroke="#000000" stroke-miterlimit="10" stroke-width="1" speechify-initial-font-family="Figtree, sans-serif" speechify-initial-font-size="15px" style="font-family: Figtree, sans-serif; font-size: 15px;"></path>
    <path id="Tracé_1202" data-name="Tracé 1202" d="M108.364,1.159A59.447,59.447,0,1,1,88.469,7.913l-.116,104.311" transform="translate(-19442 5627.243)" fill="none" stroke="#000000" stroke-miterlimit="10" stroke-width="1" speechify-initial-font-family="Figtree, sans-serif" speechify-initial-font-size="15px" style="font-family: Figtree, sans-serif; font-size: 15px;"></path>
    <path id="Tracé_1203" data-name="Tracé 1203" d="M64.688,32.121,88.353,52.945l24.163-20.824" transform="translate(-19442 5627.243)" fill="none" stroke="#000000" stroke-miterlimit="10" stroke-width="1" speechify-initial-font-family="Figtree, sans-serif" speechify-initial-font-size="15px" style="font-family: Figtree, sans-serif; font-size: 15px;"></path>
    <path id="Tracé_1204" data-name="Tracé 1204" d="M106.469,67.723,88.353,81.21,70.469,66.723,88.353,81.21" transform="translate(-19442 5627.243)" fill="none" stroke="#000000" stroke-miterlimit="10" stroke-width="5px" speechify-initial-font-family="Figtree, sans-serif" speechify-initial-font-size="15px" style="font-family: Figtree, sans-serif; font-size: 15px;"></path>
  </g>
</svg>