<svg xmlns="http://www.w3.org/2000/svg" xmlns:xlink="http://www.w3.org/1999/xlink" width="3000" height="427.971" class="img-fluid" viewBox="0 0 3000 427.971" speechify-initial-font-family="Figtree, sans-serif" speechify-initial-font-size="15px">
  <defs speechify-initial-font-family="Figtree, sans-serif" speechify-initial-font-size="15px">
    <clipPath id="footer-deuza-clip-path" speechify-initial-font-family="Figtree, sans-serif" speechify-initial-font-size="15px">
      <rect id="Rectangle_508" data-name="Rectangle 508" width="3000" height="427.971" transform="translate(0 0)" fill="none" speechify-initial-font-family="Figtree, sans-serif" speechify-initial-font-size="15px"></rect>
    </clipPath>
  </defs>
  <g id="Groupe_802" data-name="Groupe 802" transform="translate(15145.5 -6342.789)" speechify-initial-font-family="Figtree, sans-serif" speechify-initial-font-size="15px">
    <g id="Groupe_défilant_3" data-name="Groupe défilant 3" transform="translate(-15145.5 6342.789)" clip-path="url(#footer-deuza-clip-path)" style="isolation: isolate" speechify-initial-font-family="Figtree, sans-serif" speechify-initial-font-size="15px">
      <g id="Groupe_801" data-name="Groupe 801" transform="translate(-34.086 -174.218)" speechify-initial-font-family="Figtree, sans-serif" speechify-initial-font-size="15px">
        <path id="DEUZA_" data-name="DEUZA " d="M34.534-403.268v3.9c11.14,6.127,24.508,17.267,24.508,35.648V-38.433c0,17.824-13.368,29.521-24.508,35.648V0h111.4c128.11,0,226.7-75.752,226.7-207.2S262.347-403.268,146.491-403.268Zm59.6,393.242V-393.242H133.68c100.26,0,199.963,62.384,199.963,203.3,0,111.4-66.283,179.911-192.722,179.911Zm620.5-104.159C692.908-72.967,661.159-10.026,605.459-10.026H494.616V-270.7h86.335c17.267,0,30.635,18.938,35.091,30.635h2.785v-71.3h-2.785c-4.456,11.7-17.824,30.635-35.091,30.635H494.616V-393.242h76.866c48.459,0,79.094,47.9,97.475,74.638l2.785-1.671-38.433-82.993H435.017v2.785c11.14,6.127,24.508,17.824,24.508,35.648v326.4c0,17.824-13.368,29.521-24.508,35.648V0H673.97l42.889-113.071ZM920.164,5.57c81.322,0,132.566-54.586,132.566-144.82V-362.607c0-18.938,13.925-31.749,25.622-37.876v-2.785H1013.74v2.785c11.7,6.127,25.065,18.938,25.065,37.876v223.914c0,81.322-42.332,130.338-114.742,130.338-65.169,0-115.856-39.547-115.856-140.921V-364.835c0-17.824,12.811-29.521,23.951-35.648v-2.785h-83.55v2.785c11.14,6.127,24.508,17.824,24.508,35.648v219.458C773.116-38.99,836.057,5.57,920.164,5.57Zm482.362-119.755c-21.166,41.218-52.915,104.159-108.615,104.159H1163.573l216.116-383.216v-10.026H1170.814l-38.433,82.993,2.228,1.671c18.381-26.736,49.016-74.638,98.032-74.638h107.5L1125.7-10.026V0h236.168l43.446-113.071Zm177.683-294.653H1567.4L1438.731-40.661c-5.57,15.039-12.254,28.964-36.2,37.876V0h66.283V-2.785c-16.153-4.456-25.065-18.938-17.824-37.876l54.029-155.4H1623.1l60.713,158.188c6.684,17.267-2.785,31.192-20.052,35.648V0h88.563V-2.785c-15.6-8.912-25.065-18.381-31.192-33.42Zm-18.938,51.8L1619.2-206.09H1508.913Z" transform="translate(0 588)" fill="#ECECEC" speechify-initial-font-family="Figtree, sans-serif" speechify-initial-font-size="15px"></path>
        <path id="_1920" data-name="1920" d="M120.312,0l.557-364.835,3.9-25.065H167.1L165.986,0ZM33.42-289.64v-42.889q11.7.557,27.85-7.8A220.9,220.9,0,0,0,94.69-362.05a218.792,218.792,0,0,0,30.078-27.85l28.964,31.749A338.485,338.485,0,0,1,115.3-323.06a197.414,197.414,0,0,1-40.661,24.786Q54.029-289.083,33.42-289.64ZM378.76-396.584q41.218,0,67.954,15.318a121.612,121.612,0,0,1,43.168,41.5q16.431,26.179,23.394,60.435a364.471,364.471,0,0,1,6.963,72.689q0,50.13-10.583,89.677T479.577-49.852Q460.082-22.28,432.51-7.8T369.848,6.684A187.965,187.965,0,0,1,312.2-2.507,187.744,187.744,0,0,1,260.676-27.85l26.179-33.42a153.817,153.817,0,0,0,38.711,19.217q20.888,6.962,39.826,6.962,56.814,0,86.613-47.9t25.9-144.82l10.026,9.469q-13.368,33.977-42.889,54.029t-69.625,20.052q-37.876,0-66.84-16.432a119.647,119.647,0,0,1-45.4-44.838q-16.431-28.407-16.431-65.726,0-36.762,16.71-64.891t46.509-44.282Q339.77-396.584,378.76-396.584Zm0,41.218q-24.508,0-44,10.862A77.519,77.519,0,0,0,304.4-314.426q-10.861,19.217-10.862,44.281T304.4-225.863a77.519,77.519,0,0,0,30.356,30.078q19.5,10.862,44,10.862,25.622,0,44.839-10.862a78.043,78.043,0,0,0,30.078-30.078q10.861-19.217,10.862-44.282t-10.862-44.281A78.043,78.043,0,0,0,423.6-344.5Q404.382-355.366,378.76-355.366ZM623.84-27.293l-46.788-11.7a94.394,94.394,0,0,1,7.519-36.484A150.809,150.809,0,0,1,606.294-111.4a193.239,193.239,0,0,1,34.813-33.42l80.765-60.713a125.662,125.662,0,0,0,25.344-23.116A112.65,112.65,0,0,0,764.2-255.942a69.4,69.4,0,0,0,6.127-27.571,67.727,67.727,0,0,0-9.469-35.37,69,69,0,0,0-26.736-25.343q-17.267-9.469-40.661-9.469-22.837,0-40.1,8.634a82.2,82.2,0,0,0-28.407,22.837A94.241,94.241,0,0,0,608.8-291.868l-47.9-9.469a125.492,125.492,0,0,1,24.229-46.788q17.545-21.723,44.839-35.091t60.713-13.368q38.99,0,67.4,14.76t44.281,40.1q15.875,25.343,15.875,57.65,0,30.635-16.71,57.928t-48.459,52.915L676.755-115.3a162.778,162.778,0,0,0-28.129,25.622,109.922,109.922,0,0,0-18.381,29.243A85.033,85.033,0,0,0,623.84-27.293ZM577.052,0V-38.99L612.7-41.775H823.8V0Zm457.854,6.684q-44.56,0-79.094-25.9t-54.029-71.3q-19.495-45.4-19.495-104.437t19.495-104.438q19.495-45.4,53.75-71.3t79.372-25.9q45.117,0,79.373,25.9t54.029,71.3q19.774,45.4,19.774,104.438T1168.586-90.512q-19.5,45.4-54.029,71.3T1034.906,6.684Zm0-42.332q31.192,0,55.422-20.609t37.876-56.257q13.647-35.648,13.647-82.436T1128.2-277.664q-13.646-35.927-37.876-56.257t-55.422-20.33a82.726,82.726,0,0,0-55.143,20.33q-23.951,20.331-37.6,56.257T928.519-194.95q0,46.788,13.646,82.436t37.876,56.257Q1004.271-35.648,1034.906-35.648Z" transform="translate(1831.601 592.438)" fill="#ECECEC" speechify-initial-font-family="Figtree, sans-serif" speechify-initial-font-size="15px"></path>
      </g>
    </g>
  </g>
</svg>