<svg xmlns:xlink="http://www.w3.org/1999/xlink" xmlns="http://www.w3.org/2000/svg" style="width: var(--svg-w, 92.788px); height: var(--svg-h, 76.161px); font-family: Figtree, sans-serif; font-size: 15px;" viewBox="0 0 92.788 76.161" speechify-initial-font-family="Figtree, sans-serif" speechify-initial-font-size="15px" width="92.788"  height="76.161" >
  <g id="Groupe_803" data-name="Groupe 803" transform="translate(14490.762 5556.163)" speechify-initial-font-family="Figtree, sans-serif" speechify-initial-font-size="15px" style="font-family: Figtree, sans-serif; font-size: 15px;">
    <path id="Tracé_1224" data-name="Tracé 1224" d="M1430.246,242.019l-.012.043-.013-.012c0,.006-.086.16-.086.16a.676.676,0,0,1-1.108-.751,9.546,9.546,0,0,0,.689-3.689,24.887,24.887,0,0,0-2.728-11.27,15.244,15.244,0,0,1,2.026-16.085l.013-.043.006.012c.006-.006.092-.16.092-.16a.672.672,0,0,1,.462-.228h.068a.7.7,0,0,1,.56.333.671.671,0,0,1,.019.646,9.352,9.352,0,0,0-.69,3.689,24.905,24.905,0,0,0,2.728,11.27,15.244,15.244,0,0,1-2.026,16.085" transform="translate(-15874 -5766.159)" speechify-initial-font-family="Figtree, sans-serif" speechify-initial-font-size="15px" style="font-family: Figtree, sans-serif; font-size: 15px;"></path>
    <path id="Tracé_1225" data-name="Tracé 1225" d="M1476.026,247.728v.068a.68.68,0,0,1-.333.56.671.671,0,0,1-.646.019,9.345,9.345,0,0,0-3.689-.69,24.9,24.9,0,0,0-11.269,2.728A15.246,15.246,0,0,1,1444,248.387l-.043-.012.013-.013c-.007,0-.161-.086-.161-.086a.676.676,0,0,1,.752-1.108,9.415,9.415,0,0,0,3.7.689,24.938,24.938,0,0,0,11.263-2.722,15.235,15.235,0,0,1,16.085,2.02l.043.013-.012.012c.006,0,.16.086.16.086a.664.664,0,0,1,.228.462" transform="translate(-15874 -5766.159)" speechify-initial-font-family="Figtree, sans-serif" speechify-initial-font-size="15px" style="font-family: Figtree, sans-serif; font-size: 15px;"></path>
    <path id="Tracé_1226" data-name="Tracé 1226" d="M1415.675,247.728v.068a.68.68,0,0,1-.333.56.671.671,0,0,1-.646.019,9.345,9.345,0,0,0-3.689-.69,24.9,24.9,0,0,0-11.269,2.728,15.247,15.247,0,0,1-16.086-2.026l-.043-.012.013-.013c-.007,0-.161-.086-.161-.086a.676.676,0,0,1,.752-1.108,9.414,9.414,0,0,0,3.695.689,24.938,24.938,0,0,0,11.263-2.722,15.234,15.234,0,0,1,16.085,2.02l.043.013-.012.012c.006,0,.16.086.16.086a.665.665,0,0,1,.228.462" transform="translate(-15874 -5766.159)" speechify-initial-font-family="Figtree, sans-serif" speechify-initial-font-size="15px" style="font-family: Figtree, sans-serif; font-size: 15px;"></path>
    <path id="Tracé_1227" data-name="Tracé 1227" d="M1430.246,285.742l-.012.044-.013-.013c0,.006-.086.16-.086.16a.676.676,0,0,1-1.108-.751,9.539,9.539,0,0,0,.689-3.689,24.884,24.884,0,0,0-2.728-11.269,15.246,15.246,0,0,1,2.026-16.086l.013-.042.006.011c.006,0,.092-.159.092-.159a.673.673,0,0,1,.462-.229h.068a.7.7,0,0,1,.56.333.673.673,0,0,1,.019.647,9.345,9.345,0,0,0-.69,3.689,24.9,24.9,0,0,0,2.728,11.269,15.244,15.244,0,0,1-2.026,16.085" transform="translate(-15874 -5766.159)" speechify-initial-font-family="Figtree, sans-serif" speechify-initial-font-size="15px" style="font-family: Figtree, sans-serif; font-size: 15px;"></path>
  </g>
</svg>